<svg width="1336" height="280" xmlns="http://www.w3.org/2000/svg">
  <defs>
    <marker id="arrowhead" markerWidth="12" markerHeight="8" 
            refX="10" refY="4" orient="auto" markerUnits="strokeWidth">
      <path d="M0,0 L0,8 L12,4 z" fill="#374151"/>
    </marker>
  </defs>
  <rect x="1304" y="80" width="2" height="90" 
           rx="8" ry="8" fill="#DBEAFE" stroke="#3B82F6" stroke-width="2"/>
  <rect x="20" y="160" width="278" height="10" 
           rx="8" ry="8" fill="#D1FAE5" stroke="#10B981" stroke-width="2"/>
  <rect x="728" y="180" width="2" height="10" 
           rx="8" ry="8" fill="#E9D5FF" stroke="#8B5CF6" stroke-width="2"/>
  <rect x="1016" y="180" width="2" height="10" 
           rx="8" ry="8" fill="#FEF3C7" stroke="#F59E0B" stroke-width="2"/>
  <rect x="512" y="200" width="314" height="10" 
           rx="8" ry="8" fill="#FECACA" stroke="#EF4444" stroke-width="2"/>
  <path d="M 32 90 L 284 90" stroke="#374151" 
           stroke-width="2" fill="none" marker-end="url(#arrowhead)"/>
  <path d="M 44 90 L 284 90" stroke="#374151" 
           stroke-width="2" fill="none" marker-end="url(#arrowhead)"/>
  <path d="M 56 90 L 284 90" stroke="#374151" 
           stroke-width="2" fill="none" marker-end="url(#arrowhead)"/>
  <path d="M 68 90 L 284 90" stroke="#374151" 
           stroke-width="2" fill="none" marker-end="url(#arrowhead)"/>
  <path d="M 80 90 L 284 90" stroke="#374151" 
           stroke-width="2" fill="none" marker-end="url(#arrowhead)"/>
  <path d="M 92 90 L 284 90" stroke="#374151" 
           stroke-width="2" fill="none" marker-end="url(#arrowhead)"/>
  <path d="M 104 90 L 284 90" stroke="#374151" 
           stroke-width="2" fill="none" marker-end="url(#arrowhead)"/>
  <path d="M 116 90 L 284 90" stroke="#374151" 
           stroke-width="2" fill="none" marker-end="url(#arrowhead)"/>
  <path d="M 128 90 L 284 90" stroke="#374151" 
           stroke-width="2" fill="none" marker-end="url(#arrowhead)"/>
  <path d="M 140 90 L 284 90" stroke="#374151" 
           stroke-width="2" fill="none" marker-end="url(#arrowhead)"/>
  <path d="M 152 90 L 284 90" stroke="#374151" 
           stroke-width="2" fill="none" marker-end="url(#arrowhead)"/>
  <path d="M 164 90 L 284 90" stroke="#374151" 
           stroke-width="2" fill="none" marker-end="url(#arrowhead)"/>
  <path d="M 176 90 L 284 90" stroke="#374151" 
           stroke-width="2" fill="none" marker-end="url(#arrowhead)"/>
  <path d="M 188 90 L 284 90" stroke="#374151" 
           stroke-width="2" fill="none" marker-end="url(#arrowhead)"/>
  <path d="M 200 90 L 284 90" stroke="#374151" 
           stroke-width="2" fill="none" marker-end="url(#arrowhead)"/>
  <path d="M 212 90 L 284 90" stroke="#374151" 
           stroke-width="2" fill="none" marker-end="url(#arrowhead)"/>
  <path d="M 224 90 L 284 90" stroke="#374151" 
           stroke-width="2" fill="none" marker-end="url(#arrowhead)"/>
  <path d="M 236 90 L 284 90" stroke="#374151" 
           stroke-width="2" fill="none" marker-end="url(#arrowhead)"/>
  <path d="M 248 90 L 284 90" stroke="#374151" 
           stroke-width="2" fill="none" marker-end="url(#arrowhead)"/>
  <path d="M 260 90 L 284 90" stroke="#374151" 
           stroke-width="2" fill="none" marker-end="url(#arrowhead)"/>
  <path d="M 272 90 L 284 90" stroke="#374151" 
           stroke-width="2" fill="none" marker-end="url(#arrowhead)"/>
  <path d="M 524 90 L 812 90" stroke="#374151" 
           stroke-width="2" fill="none" marker-end="url(#arrowhead)"/>
  <path d="M 536 90 L 812 90" stroke="#374151" 
           stroke-width="2" fill="none" marker-end="url(#arrowhead)"/>
  <path d="M 548 90 L 812 90" stroke="#374151" 
           stroke-width="2" fill="none" marker-end="url(#arrowhead)"/>
  <path d="M 560 90 L 812 90" stroke="#374151" 
           stroke-width="2" fill="none" marker-end="url(#arrowhead)"/>
  <path d="M 572 90 L 812 90" stroke="#374151" 
           stroke-width="2" fill="none" marker-end="url(#arrowhead)"/>
  <path d="M 584 90 L 812 90" stroke="#374151" 
           stroke-width="2" fill="none" marker-end="url(#arrowhead)"/>
  <path d="M 596 90 L 812 90" stroke="#374151" 
           stroke-width="2" fill="none" marker-end="url(#arrowhead)"/>
  <path d="M 608 90 L 812 90" stroke="#374151" 
           stroke-width="2" fill="none" marker-end="url(#arrowhead)"/>
  <path d="M 620 90 L 812 90" stroke="#374151" 
           stroke-width="2" fill="none" marker-end="url(#arrowhead)"/>
  <path d="M 632 90 L 812 90" stroke="#374151" 
           stroke-width="2" fill="none" marker-end="url(#arrowhead)"/>
  <path d="M 644 90 L 812 90" stroke="#374151" 
           stroke-width="2" fill="none" marker-end="url(#arrowhead)"/>
  <path d="M 656 90 L 812 90" stroke="#374151" 
           stroke-width="2" fill="none" marker-end="url(#arrowhead)"/>
  <path d="M 668 90 L 812 90" stroke="#374151" 
           stroke-width="2" fill="none" marker-end="url(#arrowhead)"/>
  <path d="M 680 90 L 812 90" stroke="#374151" 
           stroke-width="2" fill="none" marker-end="url(#arrowhead)"/>
  <path d="M 692 90 L 812 90" stroke="#374151" 
           stroke-width="2" fill="none" marker-end="url(#arrowhead)"/>
  <path d="M 704 90 L 812 90" stroke="#374151" 
           stroke-width="2" fill="none" marker-end="url(#arrowhead)"/>
  <path d="M 716 90 L 812 90" stroke="#374151" 
           stroke-width="2" fill="none" marker-end="url(#arrowhead)"/>
  <path d="M 728 90 L 812 90" stroke="#374151" 
           stroke-width="2" fill="none" marker-end="url(#arrowhead)"/>
  <path d="M 740 90 L 812 90" stroke="#374151" 
           stroke-width="2" fill="none" marker-end="url(#arrowhead)"/>
  <path d="M 752 90 L 812 90" stroke="#374151" 
           stroke-width="2" fill="none" marker-end="url(#arrowhead)"/>
  <path d="M 764 90 L 812 90" stroke="#374151" 
           stroke-width="2" fill="none" marker-end="url(#arrowhead)"/>
  <path d="M 776 90 L 812 90" stroke="#374151" 
           stroke-width="2" fill="none" marker-end="url(#arrowhead)"/>
  <path d="M 788 90 L 812 90" stroke="#374151" 
           stroke-width="2" fill="none" marker-end="url(#arrowhead)"/>
  <path d="M 800 90 L 812 90" stroke="#374151" 
           stroke-width="2" fill="none" marker-end="url(#arrowhead)"/>
  <path d="M 1028 90 L 1292 90" stroke="#374151" 
           stroke-width="2" fill="none" marker-end="url(#arrowhead)"/>
  <path d="M 1040 90 L 1292 90" stroke="#374151" 
           stroke-width="2" fill="none" marker-end="url(#arrowhead)"/>
  <path d="M 1052 90 L 1292 90" stroke="#374151" 
           stroke-width="2" fill="none" marker-end="url(#arrowhead)"/>
  <path d="M 1064 90 L 1292 90" stroke="#374151" 
           stroke-width="2" fill="none" marker-end="url(#arrowhead)"/>
  <path d="M 1076 90 L 1292 90" stroke="#374151" 
           stroke-width="2" fill="none" marker-end="url(#arrowhead)"/>
  <path d="M 1088 90 L 1292 90" stroke="#374151" 
           stroke-width="2" fill="none" marker-end="url(#arrowhead)"/>
  <path d="M 1100 90 L 1292 90" stroke="#374151" 
           stroke-width="2" fill="none" marker-end="url(#arrowhead)"/>
  <path d="M 1112 90 L 1292 90" stroke="#374151" 
           stroke-width="2" fill="none" marker-end="url(#arrowhead)"/>
  <path d="M 1124 90 L 1292 90" stroke="#374151" 
           stroke-width="2" fill="none" marker-end="url(#arrowhead)"/>
  <path d="M 1136 90 L 1292 90" stroke="#374151" 
           stroke-width="2" fill="none" marker-end="url(#arrowhead)"/>
  <path d="M 1148 90 L 1292 90" stroke="#374151" 
           stroke-width="2" fill="none" marker-end="url(#arrowhead)"/>
  <path d="M 1160 90 L 1292 90" stroke="#374151" 
           stroke-width="2" fill="none" marker-end="url(#arrowhead)"/>
  <path d="M 1172 90 L 1292 90" stroke="#374151" 
           stroke-width="2" fill="none" marker-end="url(#arrowhead)"/>
  <path d="M 1184 90 L 1292 90" stroke="#374151" 
           stroke-width="2" fill="none" marker-end="url(#arrowhead)"/>
  <path d="M 1196 90 L 1292 90" stroke="#374151" 
           stroke-width="2" fill="none" marker-end="url(#arrowhead)"/>
  <path d="M 1208 90 L 1292 90" stroke="#374151" 
           stroke-width="2" fill="none" marker-end="url(#arrowhead)"/>
  <path d="M 1220 90 L 1292 90" stroke="#374151" 
           stroke-width="2" fill="none" marker-end="url(#arrowhead)"/>
  <path d="M 1232 90 L 1292 90" stroke="#374151" 
           stroke-width="2" fill="none" marker-end="url(#arrowhead)"/>
  <path d="M 1244 90 L 1292 90" stroke="#374151" 
           stroke-width="2" fill="none" marker-end="url(#arrowhead)"/>
  <path d="M 1256 90 L 1292 90" stroke="#374151" 
           stroke-width="2" fill="none" marker-end="url(#arrowhead)"/>
  <path d="M 1268 90 L 1292 90" stroke="#374151" 
           stroke-width="2" fill="none" marker-end="url(#arrowhead)"/>
  <path d="M 1280 90 L 1292 90" stroke="#374151" 
           stroke-width="2" fill="none" marker-end="url(#arrowhead)"/>
  <path d="M 20 110 L 20 150" stroke="#374151" 
           stroke-width="2" fill="none" marker-end="url(#arrowhead)"/>
  <path d="M 512 110 L 512 190" stroke="#374151" 
           stroke-width="2" fill="none" marker-end="url(#arrowhead)"/>
  <path d="M 1016 110 L 1016 150" stroke="#374151" 
           stroke-width="2" fill="none" marker-end="url(#arrowhead)"/>
  <path d="M 1304 110 L 1304 150" stroke="#374151" 
           stroke-width="2" fill="none" marker-end="url(#arrowhead)"/>
  <path d="M 20 130 L 20 150" stroke="#374151" 
           stroke-width="2" fill="none" marker-end="url(#arrowhead)"/>
  <path d="M 308 130 L 488 130" stroke="#374151" 
           stroke-width="2" fill="none" marker-end="url(#arrowhead)"/>
  <path d="M 320 130 L 488 130" stroke="#374151" 
           stroke-width="2" fill="none" marker-end="url(#arrowhead)"/>
  <path d="M 332 130 L 488 130" stroke="#374151" 
           stroke-width="2" fill="none" marker-end="url(#arrowhead)"/>
  <path d="M 344 130 L 488 130" stroke="#374151" 
           stroke-width="2" fill="none" marker-end="url(#arrowhead)"/>
  <path d="M 356 130 L 488 130" stroke="#374151" 
           stroke-width="2" fill="none" marker-end="url(#arrowhead)"/>
  <path d="M 368 130 L 488 130" stroke="#374151" 
           stroke-width="2" fill="none" marker-end="url(#arrowhead)"/>
  <path d="M 380 130 L 488 130" stroke="#374151" 
           stroke-width="2" fill="none" marker-end="url(#arrowhead)"/>
  <path d="M 392 130 L 488 130" stroke="#374151" 
           stroke-width="2" fill="none" marker-end="url(#arrowhead)"/>
  <path d="M 404 130 L 488 130" stroke="#374151" 
           stroke-width="2" fill="none" marker-end="url(#arrowhead)"/>
  <path d="M 416 130 L 488 130" stroke="#374151" 
           stroke-width="2" fill="none" marker-end="url(#arrowhead)"/>
  <path d="M 428 130 L 488 130" stroke="#374151" 
           stroke-width="2" fill="none" marker-end="url(#arrowhead)"/>
  <path d="M 440 130 L 488 130" stroke="#374151" 
           stroke-width="2" fill="none" marker-end="url(#arrowhead)"/>
  <path d="M 452 130 L 488 130" stroke="#374151" 
           stroke-width="2" fill="none" marker-end="url(#arrowhead)"/>
  <path d="M 464 130 L 488 130" stroke="#374151" 
           stroke-width="2" fill="none" marker-end="url(#arrowhead)"/>
  <path d="M 476 130 L 488 130" stroke="#374151" 
           stroke-width="2" fill="none" marker-end="url(#arrowhead)"/>
  <path d="M 512 130 L 512 190" stroke="#374151" 
           stroke-width="2" fill="none" marker-end="url(#arrowhead)"/>
  <path d="M 836 130 L 1004 130" stroke="#374151" 
           stroke-width="2" fill="none" marker-end="url(#arrowhead)"/>
  <path d="M 848 130 L 1004 130" stroke="#374151" 
           stroke-width="2" fill="none" marker-end="url(#arrowhead)"/>
  <path d="M 860 130 L 1004 130" stroke="#374151" 
           stroke-width="2" fill="none" marker-end="url(#arrowhead)"/>
  <path d="M 872 130 L 1004 130" stroke="#374151" 
           stroke-width="2" fill="none" marker-end="url(#arrowhead)"/>
  <path d="M 884 130 L 1004 130" stroke="#374151" 
           stroke-width="2" fill="none" marker-end="url(#arrowhead)"/>
  <path d="M 896 130 L 1004 130" stroke="#374151" 
           stroke-width="2" fill="none" marker-end="url(#arrowhead)"/>
  <path d="M 908 130 L 1004 130" stroke="#374151" 
           stroke-width="2" fill="none" marker-end="url(#arrowhead)"/>
  <path d="M 920 130 L 1004 130" stroke="#374151" 
           stroke-width="2" fill="none" marker-end="url(#arrowhead)"/>
  <path d="M 932 130 L 1004 130" stroke="#374151" 
           stroke-width="2" fill="none" marker-end="url(#arrowhead)"/>
  <path d="M 944 130 L 1004 130" stroke="#374151" 
           stroke-width="2" fill="none" marker-end="url(#arrowhead)"/>
  <path d="M 956 130 L 1004 130" stroke="#374151" 
           stroke-width="2" fill="none" marker-end="url(#arrowhead)"/>
  <path d="M 968 130 L 1004 130" stroke="#374151" 
           stroke-width="2" fill="none" marker-end="url(#arrowhead)"/>
  <path d="M 980 130 L 1004 130" stroke="#374151" 
           stroke-width="2" fill="none" marker-end="url(#arrowhead)"/>
  <path d="M 992 130 L 1004 130" stroke="#374151" 
           stroke-width="2" fill="none" marker-end="url(#arrowhead)"/>
  <path d="M 1016 130 L 1016 150" stroke="#374151" 
           stroke-width="2" fill="none" marker-end="url(#arrowhead)"/>
  <path d="M 1304 130 L 1304 150" stroke="#374151" 
           stroke-width="2" fill="none" marker-end="url(#arrowhead)"/>
  <path d="M 512 150 L 512 190" stroke="#374151" 
           stroke-width="2" fill="none" marker-end="url(#arrowhead)"/>
  <path d="M 824 150 L 824 190" stroke="#374151" 
           stroke-width="2" fill="none" marker-end="url(#arrowhead)"/>
  <path d="M 32 170 L 284 170" stroke="#374151" 
           stroke-width="2" fill="none" marker-end="url(#arrowhead)"/>
  <path d="M 44 170 L 284 170" stroke="#374151" 
           stroke-width="2" fill="none" marker-end="url(#arrowhead)"/>
  <path d="M 56 170 L 284 170" stroke="#374151" 
           stroke-width="2" fill="none" marker-end="url(#arrowhead)"/>
  <path d="M 68 170 L 284 170" stroke="#374151" 
           stroke-width="2" fill="none" marker-end="url(#arrowhead)"/>
  <path d="M 80 170 L 284 170" stroke="#374151" 
           stroke-width="2" fill="none" marker-end="url(#arrowhead)"/>
  <path d="M 92 170 L 284 170" stroke="#374151" 
           stroke-width="2" fill="none" marker-end="url(#arrowhead)"/>
  <path d="M 104 170 L 284 170" stroke="#374151" 
           stroke-width="2" fill="none" marker-end="url(#arrowhead)"/>
  <path d="M 116 170 L 284 170" stroke="#374151" 
           stroke-width="2" fill="none" marker-end="url(#arrowhead)"/>
  <path d="M 128 170 L 284 170" stroke="#374151" 
           stroke-width="2" fill="none" marker-end="url(#arrowhead)"/>
  <path d="M 140 170 L 284 170" stroke="#374151" 
           stroke-width="2" fill="none" marker-end="url(#arrowhead)"/>
  <path d="M 152 170 L 284 170" stroke="#374151" 
           stroke-width="2" fill="none" marker-end="url(#arrowhead)"/>
  <path d="M 164 170 L 284 170" stroke="#374151" 
           stroke-width="2" fill="none" marker-end="url(#arrowhead)"/>
  <path d="M 176 170 L 284 170" stroke="#374151" 
           stroke-width="2" fill="none" marker-end="url(#arrowhead)"/>
  <path d="M 188 170 L 284 170" stroke="#374151" 
           stroke-width="2" fill="none" marker-end="url(#arrowhead)"/>
  <path d="M 200 170 L 284 170" stroke="#374151" 
           stroke-width="2" fill="none" marker-end="url(#arrowhead)"/>
  <path d="M 212 170 L 284 170" stroke="#374151" 
           stroke-width="2" fill="none" marker-end="url(#arrowhead)"/>
  <path d="M 224 170 L 284 170" stroke="#374151" 
           stroke-width="2" fill="none" marker-end="url(#arrowhead)"/>
  <path d="M 236 170 L 284 170" stroke="#374151" 
           stroke-width="2" fill="none" marker-end="url(#arrowhead)"/>
  <path d="M 248 170 L 284 170" stroke="#374151" 
           stroke-width="2" fill="none" marker-end="url(#arrowhead)"/>
  <path d="M 260 170 L 284 170" stroke="#374151" 
           stroke-width="2" fill="none" marker-end="url(#arrowhead)"/>
  <path d="M 272 170 L 284 170" stroke="#374151" 
           stroke-width="2" fill="none" marker-end="url(#arrowhead)"/>
  <path d="M 512 170 L 512 190" stroke="#374151" 
           stroke-width="2" fill="none" marker-end="url(#arrowhead)"/>
  <path d="M 824 170 L 824 190" stroke="#374151" 
           stroke-width="2" fill="none" marker-end="url(#arrowhead)"/>
  <path d="M 1028 170 L 1292 170" stroke="#374151" 
           stroke-width="2" fill="none" marker-end="url(#arrowhead)"/>
  <path d="M 1040 170 L 1292 170" stroke="#374151" 
           stroke-width="2" fill="none" marker-end="url(#arrowhead)"/>
  <path d="M 1052 170 L 1292 170" stroke="#374151" 
           stroke-width="2" fill="none" marker-end="url(#arrowhead)"/>
  <path d="M 1064 170 L 1292 170" stroke="#374151" 
           stroke-width="2" fill="none" marker-end="url(#arrowhead)"/>
  <path d="M 1076 170 L 1292 170" stroke="#374151" 
           stroke-width="2" fill="none" marker-end="url(#arrowhead)"/>
  <path d="M 1088 170 L 1292 170" stroke="#374151" 
           stroke-width="2" fill="none" marker-end="url(#arrowhead)"/>
  <path d="M 1100 170 L 1292 170" stroke="#374151" 
           stroke-width="2" fill="none" marker-end="url(#arrowhead)"/>
  <path d="M 1112 170 L 1292 170" stroke="#374151" 
           stroke-width="2" fill="none" marker-end="url(#arrowhead)"/>
  <path d="M 1124 170 L 1292 170" stroke="#374151" 
           stroke-width="2" fill="none" marker-end="url(#arrowhead)"/>
  <path d="M 1136 170 L 1292 170" stroke="#374151" 
           stroke-width="2" fill="none" marker-end="url(#arrowhead)"/>
  <path d="M 1148 170 L 1292 170" stroke="#374151" 
           stroke-width="2" fill="none" marker-end="url(#arrowhead)"/>
  <path d="M 1160 170 L 1292 170" stroke="#374151" 
           stroke-width="2" fill="none" marker-end="url(#arrowhead)"/>
  <path d="M 1172 170 L 1292 170" stroke="#374151" 
           stroke-width="2" fill="none" marker-end="url(#arrowhead)"/>
  <path d="M 1184 170 L 1292 170" stroke="#374151" 
           stroke-width="2" fill="none" marker-end="url(#arrowhead)"/>
  <path d="M 1196 170 L 1292 170" stroke="#374151" 
           stroke-width="2" fill="none" marker-end="url(#arrowhead)"/>
  <path d="M 1208 170 L 1292 170" stroke="#374151" 
           stroke-width="2" fill="none" marker-end="url(#arrowhead)"/>
  <path d="M 1220 170 L 1292 170" stroke="#374151" 
           stroke-width="2" fill="none" marker-end="url(#arrowhead)"/>
  <path d="M 1232 170 L 1292 170" stroke="#374151" 
           stroke-width="2" fill="none" marker-end="url(#arrowhead)"/>
  <path d="M 1244 170 L 1292 170" stroke="#374151" 
           stroke-width="2" fill="none" marker-end="url(#arrowhead)"/>
  <path d="M 1256 170 L 1292 170" stroke="#374151" 
           stroke-width="2" fill="none" marker-end="url(#arrowhead)"/>
  <path d="M 1268 170 L 1292 170" stroke="#374151" 
           stroke-width="2" fill="none" marker-end="url(#arrowhead)"/>
  <path d="M 1280 170 L 1292 170" stroke="#374151" 
           stroke-width="2" fill="none" marker-end="url(#arrowhead)"/>
  <path d="M 848 190 L 1004 190" stroke="#374151" 
           stroke-width="2" fill="none" marker-end="url(#arrowhead)"/>
  <path d="M 860 190 L 1004 190" stroke="#374151" 
           stroke-width="2" fill="none" marker-end="url(#arrowhead)"/>
  <path d="M 872 190 L 1004 190" stroke="#374151" 
           stroke-width="2" fill="none" marker-end="url(#arrowhead)"/>
  <path d="M 884 190 L 1004 190" stroke="#374151" 
           stroke-width="2" fill="none" marker-end="url(#arrowhead)"/>
  <path d="M 896 190 L 1004 190" stroke="#374151" 
           stroke-width="2" fill="none" marker-end="url(#arrowhead)"/>
  <path d="M 908 190 L 1004 190" stroke="#374151" 
           stroke-width="2" fill="none" marker-end="url(#arrowhead)"/>
  <path d="M 920 190 L 1004 190" stroke="#374151" 
           stroke-width="2" fill="none" marker-end="url(#arrowhead)"/>
  <path d="M 932 190 L 1004 190" stroke="#374151" 
           stroke-width="2" fill="none" marker-end="url(#arrowhead)"/>
  <path d="M 944 190 L 1004 190" stroke="#374151" 
           stroke-width="2" fill="none" marker-end="url(#arrowhead)"/>
  <path d="M 956 190 L 1004 190" stroke="#374151" 
           stroke-width="2" fill="none" marker-end="url(#arrowhead)"/>
  <path d="M 968 190 L 1004 190" stroke="#374151" 
           stroke-width="2" fill="none" marker-end="url(#arrowhead)"/>
  <path d="M 980 190 L 1004 190" stroke="#374151" 
           stroke-width="2" fill="none" marker-end="url(#arrowhead)"/>
  <path d="M 992 190 L 1004 190" stroke="#374151" 
           stroke-width="2" fill="none" marker-end="url(#arrowhead)"/>
  <path d="M 524 210 L 812 210" stroke="#374151" 
           stroke-width="2" fill="none" marker-end="url(#arrowhead)"/>
  <path d="M 536 210 L 812 210" stroke="#374151" 
           stroke-width="2" fill="none" marker-end="url(#arrowhead)"/>
  <path d="M 548 210 L 812 210" stroke="#374151" 
           stroke-width="2" fill="none" marker-end="url(#arrowhead)"/>
  <path d="M 560 210 L 812 210" stroke="#374151" 
           stroke-width="2" fill="none" marker-end="url(#arrowhead)"/>
  <path d="M 572 210 L 812 210" stroke="#374151" 
           stroke-width="2" fill="none" marker-end="url(#arrowhead)"/>
  <path d="M 584 210 L 812 210" stroke="#374151" 
           stroke-width="2" fill="none" marker-end="url(#arrowhead)"/>
  <path d="M 596 210 L 812 210" stroke="#374151" 
           stroke-width="2" fill="none" marker-end="url(#arrowhead)"/>
  <path d="M 608 210 L 812 210" stroke="#374151" 
           stroke-width="2" fill="none" marker-end="url(#arrowhead)"/>
  <path d="M 620 210 L 812 210" stroke="#374151" 
           stroke-width="2" fill="none" marker-end="url(#arrowhead)"/>
  <path d="M 632 210 L 812 210" stroke="#374151" 
           stroke-width="2" fill="none" marker-end="url(#arrowhead)"/>
  <path d="M 644 210 L 812 210" stroke="#374151" 
           stroke-width="2" fill="none" marker-end="url(#arrowhead)"/>
  <path d="M 656 210 L 812 210" stroke="#374151" 
           stroke-width="2" fill="none" marker-end="url(#arrowhead)"/>
  <path d="M 668 210 L 812 210" stroke="#374151" 
           stroke-width="2" fill="none" marker-end="url(#arrowhead)"/>
  <path d="M 680 210 L 812 210" stroke="#374151" 
           stroke-width="2" fill="none" marker-end="url(#arrowhead)"/>
  <path d="M 692 210 L 812 210" stroke="#374151" 
           stroke-width="2" fill="none" marker-end="url(#arrowhead)"/>
  <path d="M 704 210 L 812 210" stroke="#374151" 
           stroke-width="2" fill="none" marker-end="url(#arrowhead)"/>
  <path d="M 716 210 L 812 210" stroke="#374151" 
           stroke-width="2" fill="none" marker-end="url(#arrowhead)"/>
  <path d="M 728 210 L 812 210" stroke="#374151" 
           stroke-width="2" fill="none" marker-end="url(#arrowhead)"/>
  <path d="M 740 210 L 812 210" stroke="#374151" 
           stroke-width="2" fill="none" marker-end="url(#arrowhead)"/>
  <path d="M 752 210 L 812 210" stroke="#374151" 
           stroke-width="2" fill="none" marker-end="url(#arrowhead)"/>
  <path d="M 764 210 L 812 210" stroke="#374151" 
           stroke-width="2" fill="none" marker-end="url(#arrowhead)"/>
  <path d="M 776 210 L 812 210" stroke="#374151" 
           stroke-width="2" fill="none" marker-end="url(#arrowhead)"/>
  <path d="M 788 210 L 812 210" stroke="#374151" 
           stroke-width="2" fill="none" marker-end="url(#arrowhead)"/>
  <path d="M 800 210 L 812 210" stroke="#374151" 
           stroke-width="2" fill="none" marker-end="url(#arrowhead)"/>
  <path d="M 152 230 L 284 230" stroke="#374151" 
           stroke-width="2" fill="none" marker-end="url(#arrowhead)"/>
  <path d="M 164 230 L 284 230" stroke="#374151" 
           stroke-width="2" fill="none" marker-end="url(#arrowhead)"/>
  <path d="M 176 230 L 284 230" stroke="#374151" 
           stroke-width="2" fill="none" marker-end="url(#arrowhead)"/>
  <path d="M 188 230 L 284 230" stroke="#374151" 
           stroke-width="2" fill="none" marker-end="url(#arrowhead)"/>
  <path d="M 200 230 L 284 230" stroke="#374151" 
           stroke-width="2" fill="none" marker-end="url(#arrowhead)"/>
  <path d="M 212 230 L 284 230" stroke="#374151" 
           stroke-width="2" fill="none" marker-end="url(#arrowhead)"/>
  <path d="M 224 230 L 284 230" stroke="#374151" 
           stroke-width="2" fill="none" marker-end="url(#arrowhead)"/>
  <path d="M 236 230 L 284 230" stroke="#374151" 
           stroke-width="2" fill="none" marker-end="url(#arrowhead)"/>
  <path d="M 248 230 L 284 230" stroke="#374151" 
           stroke-width="2" fill="none" marker-end="url(#arrowhead)"/>
  <path d="M 260 230 L 284 230" stroke="#374151" 
           stroke-width="2" fill="none" marker-end="url(#arrowhead)"/>
  <path d="M 272 230 L 284 230" stroke="#374151" 
           stroke-width="2" fill="none" marker-end="url(#arrowhead)"/>
  <path d="M 416 230 L 560 230" stroke="#374151" 
           stroke-width="2" fill="none" marker-end="url(#arrowhead)"/>
  <path d="M 428 230 L 560 230" stroke="#374151" 
           stroke-width="2" fill="none" marker-end="url(#arrowhead)"/>
  <path d="M 440 230 L 560 230" stroke="#374151" 
           stroke-width="2" fill="none" marker-end="url(#arrowhead)"/>
  <path d="M 452 230 L 560 230" stroke="#374151" 
           stroke-width="2" fill="none" marker-end="url(#arrowhead)"/>
  <path d="M 464 230 L 560 230" stroke="#374151" 
           stroke-width="2" fill="none" marker-end="url(#arrowhead)"/>
  <path d="M 476 230 L 560 230" stroke="#374151" 
           stroke-width="2" fill="none" marker-end="url(#arrowhead)"/>
  <path d="M 488 230 L 560 230" stroke="#374151" 
           stroke-width="2" fill="none" marker-end="url(#arrowhead)"/>
  <path d="M 500 230 L 560 230" stroke="#374151" 
           stroke-width="2" fill="none" marker-end="url(#arrowhead)"/>
  <path d="M 512 230 L 560 230" stroke="#374151" 
           stroke-width="2" fill="none" marker-end="url(#arrowhead)"/>
  <path d="M 524 230 L 560 230" stroke="#374151" 
           stroke-width="2" fill="none" marker-end="url(#arrowhead)"/>
  <path d="M 536 230 L 560 230" stroke="#374151" 
           stroke-width="2" fill="none" marker-end="url(#arrowhead)"/>
  <path d="M 548 230 L 560 230" stroke="#374151" 
           stroke-width="2" fill="none" marker-end="url(#arrowhead)"/>
  <text x="344" y="100" font-family="monospace" 
           font-size="10" fill="#374151">mounts via</text>
  <text x="872" y="100" font-family="monospace" 
           font-size="10" fill="#374151">play()</text>
  <text x="212" y="100" font-family="monospace" 
           font-size="10" fill="#374151">Slot</text>
  <text x="44" y="120" font-family="monospace" 
           font-size="10" fill="#374151">Slot</text>
  <text x="872" y="160" font-family="monospace" 
           font-size="10" fill="#374151">callbacks</text>
  <text x="344" y="160" font-family="monospace" 
           font-size="10" fill="#374151">manifest</text>
  <text x="872" y="200" font-family="monospace" 
           font-size="10" fill="#374151">notify-ui()</text>
  <text x="320" y="220" font-family="monospace" 
           font-size="10" fill="#374151">slots</text>
</svg>